<svg xmlns="http://www.w3.org/2000/svg" xmlns:xlink="http://www.w3.org/1999/xlink" id="Capa_1" x="0" y="0" version="1.1" viewBox="0 0 512 512" xml:space="preserve" style="enable-background:new 0 0 512 512"><rect style="fill:#fff" width="170.644" height="330.619" x="170.684" y="117.392"/><rect style="fill:#dcf3fd" width="85.317" height="330.619" x="256.001" y="117.392"/><polygon style="fill:#5b5b5b" points="511.392 123.726 340.476 123.726 256 439.045 171.524 123.726 .608 123.726 61.598 251.706 2.256 251.706 195.121 512 236.455 512 275.545 512 316.879 512 509.744 251.706 450.402 251.706"/><polygon points="511.392 123.726 340.476 123.726 256 439.045 256 512 275.545 512 316.879 512 509.744 251.706 450.402 251.706"/><path style="fill:#fd0023" d="M110.474,15.933c-15.988,53.293-15.988,109.631,0,162.925l4.779,15.933l117.168-48.819V48.819	L115.254,0L110.474,15.933z"/><path style="fill:#dc001e" d="M401.526,15.933L396.746,0L279.578,48.819v97.15l117.168,48.819l4.779-15.933	C417.513,125.564,417.513,69.224,401.526,15.933z"/><rect style="fill:#5b5b5b" width="64.49" height="103.974" x="223.756" y="45.413"/><rect width="32.245" height="103.974" x="256.001" y="45.413"/></svg>